<?xml version="1.0" encoding="UTF-8"?><!DOCTYPE svg PUBLIC "-//W3C//DTD SVG 1.1//EN" "http://www.w3.org/Graphics/SVG/1.1/DTD/svg11.dtd"><svg xmlns="http://www.w3.org/2000/svg" xmlns:xlink="http://www.w3.org/1999/xlink" version="1.1" width="24" height="24" viewBox="0 0 24 24"><path d="M15,14C17.67,14 23,15.34 23,18V20H7V18C7,15.34 12.33,14 15,14M15,12C12.79,12 11,10.21 11,8C11,5.79 12.79,4 15,4C17.21,4 19,5.79 19,8C19,10.21 17.21,12 15,12M2.76,14.66C2.37,15.05 1.73,15.05 1.34,14.66C0.95,14.27 0.95,13.63 1.34,13.24L3.29,11.29C3.1,10.9 3,10.46 3,10C3,8.34 4.34,7 6,7C7.66,7 9,8.34 9,10C9,11.66 7.66,13 6,13C5.54,13 5.1,12.9 4.71,12.71L2.76,14.66M6,9C5.45,9 5,9.45 5,10C5,10.55 5.45,11 6,11C6.55,11 7,10.55 7,10C7,9.45 6.55,9 6,9Z" /></svg>